<?xml version="1.0" standalone="no"?>
<!DOCTYPE svg PUBLIC "-//W3C//DTD SVG 20010904//EN"
 "http://www.w3.org/TR/2001/REC-SVG-20010904/DTD/svg10.dtd">
<svg version="1.0" xmlns="http://www.w3.org/2000/svg"
 width="1151.000000pt" height="1280.000000pt" viewBox="0 0 1151.000000 1280.000000"
 preserveAspectRatio="xMidYMid meet">
<g transform="translate(0.000000,1280.000000) scale(0.100000,-0.100000)"
fill="#000000" stroke="none">
<path d="M4650 10513 c329 -341 464 -551 532 -826 39 -162 37 -156 50 -134 5
10 19 49 31 85 29 93 31 395 3 486 -42 140 -122 246 -266 355 -104 78 -181
115 -320 151 -195 51 -194 53 -30 -117z"/>
<path d="M6825 10629 c-135 -36 -212 -73 -315 -150 -144 -109 -224 -215 -266
-355 -14 -47 -18 -96 -19 -234 0 -151 3 -185 21 -247 12 -39 27 -79 32 -90 13
-22 11 -28 50 134 68 275 203 485 532 826 139 144 141 147 109 146 -19 0 -83
-14 -144 -30z"/>
<path d="M5746 10329 c-2 -8 -14 -68 -26 -134 -27 -156 -68 -279 -145 -441
-73 -154 -145 -266 -264 -412 -325 -397 -666 -575 -1801 -936 -128 -41 -219
-78 -340 -139 -446 -224 -677 -419 -914 -770 -109 -161 -195 -352 -260 -574
-58 -200 -87 -392 -61 -402 6 -2 27 25 49 60 98 163 360 454 529 590 291 234
613 411 1176 644 167 70 330 139 362 156 32 16 61 29 65 29 4 0 4 -22 1 -48
-9 -75 -2 -79 92 -47 44 14 84 31 87 37 4 5 -26 42 -65 82 -39 39 -71 75 -71
79 0 4 65 7 145 7 119 0 145 3 145 14 0 8 -14 51 -32 96 -27 68 -29 83 -17 91
8 5 65 9 127 9 93 0 114 3 119 16 3 8 -1 57 -10 107 -20 122 -16 126 83 87
112 -44 124 -42 150 28 39 102 151 262 185 262 7 0 49 -27 94 -61 44 -33 87
-59 96 -57 8 2 37 48 63 103 55 116 60 125 71 125 5 0 28 -30 52 -67 73 -114
277 -303 326 -303 21 0 167 115 222 176 30 32 74 89 99 127 25 37 49 67 53 67
11 0 16 -10 71 -125 26 -55 55 -101 63 -103 9 -2 52 24 96 57 45 34 87 61 94
61 34 0 146 -160 185 -262 26 -70 38 -72 150 -28 98 39 103 34 84 -79 -24
-132 -30 -125 113 -131 67 -3 125 -8 129 -12 4 -5 -7 -44 -24 -89 -18 -44 -32
-87 -32 -95 0 -11 26 -14 145 -14 80 0 145 -3 145 -7 0 -4 -32 -40 -71 -79
-39 -40 -69 -77 -65 -82 3 -6 43 -23 87 -37 94 -32 101 -28 92 47 -3 26 -3 48
1 48 4 0 33 -13 65 -29 32 -17 195 -86 362 -156 563 -233 885 -410 1176 -644
170 -136 431 -427 530 -591 22 -36 44 -64 49 -62 25 7 -7 214 -63 406 -64 221
-150 412 -259 573 -239 354 -483 558 -934 780 -104 51 -211 94 -325 130 -1116
356 -1459 532 -1782 918 -226 270 -379 587 -428 890 -17 107 -30 143 -39 114z"/>
<path d="M4078 10185 c-82 -21 -171 -64 -268 -129 -95 -65 -131 -96 -125 -106
2 -4 41 0 87 7 149 25 390 -5 583 -74 76 -27 368 -168 477 -230 37 -21 70 -35
74 -31 8 9 -28 73 -110 193 -109 160 -260 291 -408 352 -78 32 -222 41 -310
18z"/>
<path d="M7185 10189 c-121 -29 -306 -159 -407 -288 -61 -77 -160 -228 -174
-263 -10 -29 12 -22 106 32 116 66 357 182 445 213 194 69 434 99 583 74 46
-7 85 -11 87 -7 11 17 -173 147 -273 192 -117 53 -261 71 -367 47z"/>
<path d="M3760 9830 c-115 -30 -263 -109 -371 -199 -124 -103 -359 -352 -359
-380 0 -19 21 -13 151 40 264 108 454 152 654 152 113 0 146 -4 253 -32 222
-57 498 -63 663 -15 105 31 260 96 256 107 -2 7 -34 15 -72 19 -183 18 -346
72 -600 199 -110 54 -227 106 -260 114 -82 21 -223 18 -315 -5z"/>
<path d="M7430 9834 c-30 -7 -145 -59 -255 -113 -250 -125 -419 -181 -597
-199 -39 -4 -73 -12 -75 -19 -4 -11 151 -76 256 -107 165 -48 441 -42 663 15
264 68 532 33 907 -120 130 -53 151 -59 151 -40 0 13 -78 104 -190 223 -177
187 -368 312 -544 356 -94 24 -235 26 -316 4z"/>
<path d="M5069 9404 c-93 -70 -161 -105 -269 -138 -203 -61 -408 -74 -915 -56
-471 16 -614 3 -829 -74 -116 -42 -187 -82 -267 -153 -210 -186 -333 -403
-414 -728 -13 -55 -21 -103 -17 -107 4 -4 57 23 118 61 271 169 545 293 849
386 184 56 447 122 580 145 153 26 388 89 507 135 184 71 410 206 537 322 93
84 228 263 198 263 -2 0 -37 -25 -78 -56z"/>
<path d="M6360 9447 c0 -24 132 -188 201 -250 127 -116 353 -251 537 -322 119
-46 354 -109 507 -135 133 -23 396 -89 580 -145 304 -93 578 -217 849 -386 61
-38 114 -65 118 -61 8 8 -29 167 -63 272 -53 160 -150 333 -253 448 -120 135
-214 203 -350 257 -201 79 -299 91 -686 85 -750 -12 -889 -5 -1090 56 -107 33
-167 63 -255 128 -91 68 -95 70 -95 53z"/>
<path d="M4724 7852 c-22 -14 -102 -65 -179 -112 -77 -47 -140 -92 -140 -99 0
-8 12 -23 27 -34 27 -20 29 -20 81 -4 84 26 94 24 108 -25 15 -58 27 -69 120
-113 70 -33 93 -38 172 -43 51 -2 100 -9 110 -14 20 -10 22 -50 6 -117 -5 -24
-7 -46 -4 -50 3 -3 26 2 50 10 63 23 69 13 60 -108 -10 -137 -26 -211 -100
-448 -72 -231 -68 -215 -56 -215 24 0 212 485 240 620 6 30 18 106 26 169 13
102 13 127 -1 225 -8 61 -23 127 -33 146 -22 44 -94 84 -179 101 -63 11 -70
15 -95 52 -12 18 -17 16 -67 -27 -30 -25 -60 -46 -67 -46 -25 0 -12 25 27 52
48 33 50 52 10 73 -67 35 -75 35 -116 7z"/>
<path d="M6702 7855 c-27 -13 -52 -28 -56 -33 -3 -6 14 -27 39 -47 25 -21 45
-41 45 -46 0 -20 -31 -7 -75 31 -54 46 -67 49 -88 16 -10 -15 -30 -26 -54 -30
-185 -33 -218 -70 -243 -279 -11 -92 3 -255 35 -394 25 -106 198 -557 226
-587 22 -24 14 12 -37 174 -89 282 -113 395 -114 526 0 72 13 89 50 69 55 -31
61 -23 54 64 -6 73 -5 80 14 90 11 6 50 11 85 11 76 0 170 27 244 70 44 25 53
36 68 80 19 57 35 62 105 34 34 -14 45 -14 71 -4 16 7 34 21 40 31 8 16 3 23
-36 47 -26 15 -109 66 -185 113 l-139 87 -49 -23z"/>
<path d="M3690 7635 c-486 -256 -730 -406 -984 -609 -144 -115 -330 -346 -416
-516 -99 -197 -159 -474 -167 -772 -8 -273 10 -458 73 -762 13 -65 24 -120 24
-122 0 -2 7 -4 15 -4 8 0 17 10 19 23 47 220 100 378 186 548 112 224 227 395
396 589 119 138 381 390 519 501 66 52 230 183 365 291 135 107 272 223 304
259 68 74 127 187 134 259 4 44 1 53 -29 88 -49 57 -117 182 -148 271 -16 44
-33 77 -42 78 -8 1 -120 -54 -249 -122z"/>
<path d="M7551 7738 c-5 -13 -19 -51 -31 -84 -24 -70 -108 -216 -147 -256 -22
-23 -25 -33 -21 -76 3 -28 21 -84 42 -128 50 -106 137 -190 466 -449 383 -302
466 -373 651 -561 236 -241 365 -409 498 -647 134 -238 181 -367 246 -664 11
-47 33 -24 49 50 60 272 86 494 86 744 0 205 -15 338 -59 519 -68 275 -154
440 -349 665 -193 223 -560 472 -1127 764 -115 59 -222 116 -237 127 -35 24
-57 23 -67 -4z"/>
<path d="M3801 6609 c-535 -441 -685 -583 -813 -774 -115 -172 -200 -378 -250
-606 -19 -90 -22 -134 -22 -329 0 -133 5 -258 12 -305 56 -355 137 -608 302
-943 82 -168 256 -472 270 -472 15 0 20 65 20 249 0 283 29 493 115 829 57
220 124 402 229 617 146 299 273 487 524 771 182 207 270 312 286 344 17 34
10 58 -72 220 -75 151 -82 156 -155 121 -103 -50 -408 -330 -545 -500 -304
-378 -512 -848 -587 -1326 -9 -55 -18 -109 -22 -119 -5 -18 -6 -18 -15 -1 -13
23 -2 295 18 430 26 180 80 355 173 562 155 348 428 693 789 995 78 66 142
126 142 134 0 8 -10 34 -22 57 -11 23 -38 87 -59 141 -20 54 -43 102 -50 106
-9 5 -99 -62 -268 -201z"/>
<path d="M7438 6807 c-8 -7 -25 -41 -38 -77 -12 -36 -38 -98 -56 -139 -19 -41
-34 -80 -34 -87 0 -7 64 -66 143 -132 361 -303 633 -646 788 -995 93 -207 146
-382 173 -562 20 -137 32 -417 18 -441 -9 -16 -11 -14 -16 16 -58 335 -99 495
-181 702 -175 444 -424 792 -793 1107 -119 102 -184 143 -229 145 l-37 1 -73
-145 c-44 -88 -72 -158 -73 -177 0 -37 59 -114 250 -328 276 -309 401 -488
553 -791 136 -273 232 -557 296 -879 46 -226 61 -377 61 -591 0 -189 5 -254
20 -254 15 0 194 316 280 494 149 307 235 567 282 856 18 111 22 176 22 365 0
201 -3 243 -23 335 -49 229 -142 452 -261 624 -116 168 -297 340 -730 696 -96
79 -209 172 -251 206 -63 52 -79 61 -91 51z"/>
<path d="M5100 6244 c0 -20 14 -65 31 -101 36 -75 66 -98 217 -163 167 -72
305 -140 339 -166 l33 -25 0 -143 c0 -98 -4 -147 -12 -158 -33 -43 -182 -153
-254 -190 -114 -56 -177 -60 -303 -19 -52 16 -98 28 -103 25 -31 -20 -39 -138
-13 -200 19 -47 59 -100 85 -114 17 -9 29 -2 77 42 189 174 329 232 558 232
229 0 369 -58 558 -232 48 -44 60 -51 77 -42 26 14 66 67 85 114 26 62 18 180
-13 200 -5 3 -51 -9 -103 -25 -126 -41 -189 -37 -303 19 -72 37 -221 147 -253
190 -9 11 -13 60 -13 158 l0 143 33 25 c33 25 151 83 341 166 150 67 178 88
215 161 29 59 42 139 22 139 -4 0 -26 -14 -47 -31 -73 -58 -105 -69 -202 -69
-73 0 -100 -4 -145 -25 -168 -74 -340 -74 -502 0 -45 21 -69 25 -145 25 -99 0
-131 11 -204 69 -21 17 -43 31 -47 31 -5 0 -9 -16 -9 -36z"/>
<path d="M4720 6131 c0 -28 71 -114 133 -160 85 -65 139 -84 242 -88 139 -6
157 22 32 47 -119 23 -217 75 -321 169 -59 54 -86 64 -86 32z"/>
<path d="M4630 6085 c0 -53 111 -231 177 -283 105 -82 184 -99 368 -76 91 11
167 15 253 10 114 -5 123 -4 120 12 -4 24 -95 70 -162 83 -40 7 -80 7 -138 -2
-46 -6 -124 -12 -173 -12 -77 -1 -99 3 -148 26 -82 37 -119 69 -199 169 -66
83 -98 107 -98 73z"/>
<path d="M4419 5668 c-225 -262 -329 -418 -453 -678 -110 -230 -215 -579 -250
-830 -20 -139 -35 -380 -36 -550 0 -302 63 -626 174 -888 48 -113 155 -272
183 -272 17 0 17 -4 -11 125 -85 384 -50 846 100 1310 128 394 358 836 658
1261 42 59 76 113 76 120 0 7 -31 35 -68 63 -84 62 -153 134 -181 190 -13 24
-29 90 -39 158 -10 64 -23 118 -29 120 -6 2 -62 -56 -124 -129z"/>
<path d="M6956 5788 c-2 -7 -11 -61 -20 -121 -9 -61 -25 -125 -37 -148 -28
-56 -97 -128 -181 -190 -37 -28 -68 -56 -68 -63 0 -7 30 -55 67 -107 237 -335
448 -711 573 -1019 227 -561 295 -1108 194 -1565 -28 -129 -28 -125 -10 -125
27 0 136 163 181 270 146 347 194 692 165 1170 -13 215 -35 357 -85 555 -96
380 -253 723 -453 988 -93 123 -301 367 -314 367 -5 0 -10 -6 -12 -12z"/>
<path d="M6134 5589 c-20 -32 133 -94 231 -94 61 0 80 5 140 35 81 41 98 66
39 56 -109 -17 -233 -18 -311 -2 -95 19 -90 19 -99 5z"/>
<path d="M4878 4953 c-35 -41 -256 -429 -329 -578 -114 -236 -203 -492 -235
-680 -21 -122 -30 -484 -15 -611 37 -311 120 -548 277 -784 51 -78 120 -160
134 -160 3 0 5 237 5 527 1 422 4 566 18 718 45 480 90 726 219 1174 l62 214
-40 74 c-21 41 -48 85 -59 99 -20 25 -21 25 -37 7z"/>
<path d="M6582 4926 c-16 -25 -42 -70 -58 -100 l-28 -53 62 -214 c129 -448
174 -694 219 -1174 14 -152 17 -296 18 -718 0 -290 2 -527 5 -527 14 0 83 82
134 160 157 236 240 473 277 784 16 134 6 491 -16 616 -35 195 -120 439 -234
675 -78 160 -297 543 -331 579 -18 19 -19 18 -48 -28z"/>
<path d="M5194 4594 c-69 -157 -143 -555 -166 -898 -21 -321 24 -627 120 -821
72 -147 265 -341 317 -321 10 3 6 24 -16 90 -55 165 -138 534 -173 776 -32
219 -38 338 -42 774 -2 247 -6 451 -9 454 -3 3 -17 -21 -31 -54z"/>
<path d="M6280 4643 c-3 -537 -10 -916 -19 -1013 -26 -258 -105 -666 -178
-908 -45 -152 -49 -172 -32 -172 63 0 243 188 312 326 62 122 111 349 123 564
17 307 -76 941 -169 1153 -23 51 -37 70 -37 50z"/>
<path d="M5534 4568 c-21 -33 19 -719 61 -1053 22 -168 79 -368 141 -487 16
-30 17 -31 30 -13 21 28 88 208 112 300 35 131 61 364 87 775 17 272 21 462
11 478 -10 17 -432 17 -442 0z"/>
</g>
</svg>
